<?xml version="1.0" encoding="UTF-8"?>
<svg id="Layer_2" data-name="Layer 2" xmlns="http://www.w3.org/2000/svg" viewBox="0 0 180.1 112.5">
  <defs>
    <style>
      .cls-1 {
        fill: #fff;
      }

      .cls-2 {
        fill: #024a2b;
      }

      .cls-3 {
        fill: #f37029;
      }

      .cls-4 {
        fill: #92817b;
      }
    </style>
  </defs>
  <g id="Layer_1-2" data-name="Layer 1">
    <g>
      <path class="cls-2" d="M82.63,41.4c0,22.82-18.5,41.32-41.32,41.32S0,64.22,0,41.4,18.5,.09,41.32,.09s41.32,18.5,41.32,41.32"/>
      <polygon class="cls-4" points="10.91 94.96 10.91 102.52 20.14 102.52 20.14 94.96 23.08 94.96 23.08 112.38 20.14 112.38 20.14 105.16 10.91 105.16 10.91 112.38 7.97 112.38 7.97 94.96 10.91 94.96"/>
      <path class="cls-4" d="M50.65,103.67c0,4.98-4.03,8.83-9.23,8.83s-9.23-3.86-9.23-8.83,4.03-8.78,9.23-8.78,9.23,3.81,9.23,8.78m-15.48,0c0,3.46,2.86,6.2,6.27,6.2s6.2-2.74,6.2-6.2-2.79-6.15-6.2-6.15-6.27,2.69-6.27,6.15"/>
      <polygon class="cls-4" points="62.69 94.96 62.69 109.71 70.23 109.71 70.23 112.38 59.76 112.38 59.76 94.96 62.69 94.96"/>
      <path class="cls-4" d="M95.17,103.67c0,5.03-3.81,8.71-9.08,8.71h-7.07v-17.42h7.14c5.23,0,9.01,3.66,9.01,8.71m-2.96,.02c0-3.56-2.66-6.1-6.1-6.1h-4.16v12.14h4.28c3.38,0,5.97-2.51,5.97-6.05"/>
      <rect class="cls-4" x="104.27" y="94.96" width="2.94" height="17.42"/>
      <polygon class="cls-4" points="120.65 94.96 129.98 107.47 129.98 94.96 132.87 94.96 132.87 112.38 129.98 112.38 120.7 99.88 120.7 112.38 117.76 112.38 117.76 94.96 120.65 94.96"/>
      <path class="cls-4" d="M155.36,103.82h2.56v6.42c-1.77,1.34-4.38,2.26-6.77,2.26-5.15,0-9.16-3.86-9.16-8.83s4.06-8.78,9.33-8.78c2.49,0,4.98,.95,6.69,2.44l-1.67,2.17c-1.34-1.24-3.21-1.99-5.03-1.99-3.56,0-6.35,2.71-6.35,6.17s2.81,6.2,6.37,6.2c1.29,0,2.76-.45,4.01-1.19v-4.85Z"/>
      <path class="cls-4" d="M173.55,97.59c-1.72,0-2.84,.65-2.84,1.82,0,3.81,9.41,1.77,9.38,8.04,0,3.11-2.74,5.03-6.57,5.03-2.74,0-5.33-1.12-7.12-2.76l1.27-2.54c1.79,1.64,4.03,2.54,5.9,2.54,2.04,0,3.26-.77,3.26-2.11,0-3.88-9.41-1.72-9.41-7.91,0-2.99,2.56-4.85,6.35-4.85,2.26,0,4.48,.72,6.1,1.79l-1.22,2.59c-1.89-1.14-3.78-1.62-5.1-1.62"/>
      <path class="cls-2" d="M93.31,60.04c4.88,2.5,12.72,4.99,20.81,4.99,7.37,0,10.94-2.5,10.94-6.54s-3.57-6.18-12.6-9.27c-13.56-4.76-22.59-12.25-22.59-24.14,0-14.15,12.01-25.09,32.22-25.09,9.51,0,16.41,1.78,21.64,4.16l-4.52,17.12c-3.45-1.55-9.39-3.8-17.36-3.8-6.54,0-10.11,2.38-10.11,5.94,0,4.04,4.28,5.71,14.39,9.39,14.39,5.35,20.81,13.08,20.81,24.26,0,13.79-10.7,25.56-34.12,25.56-9.63,0-19.02-2.5-23.54-4.88l4.04-17.72Z"/>
      <rect class="cls-2" x="158.58" y="1.31" width="21.52" height="80.14"/>
      <rect class="cls-1" x="24.45" y="24.3" width="33.73" height="33.73"/>
      <rect class="cls-3" x="29.23" y="29.08" width="24.18" height="24.18"/>
    </g>
  </g>
</svg>